<?xml version="1.0" encoding="UTF-8"?>
<svg id="Layer_2" data-name="Layer 2" xmlns="http://www.w3.org/2000/svg" viewBox="0 0 372.08 144.16">
  <g id="Layer_1-2" data-name="Layer 1">
    <path d="M79.22,28.51c.27-1.93.31-9.91.01-11.88-.16-.98-.91-1.3-1.67-1.77-5.29-3.28-14.21-5.38-20.41-5.7-27.45-1.38-44.67,22.92-40.38,48.85,3.58,21.63,21.98,32.54,43.09,30.16,4.66-.53,9.35-2.57,13.99-2.26,1.47.1,3.1.61,4.58.7,4.4.24,8.51-1.26,9.97-5.74-4,3.7-8.74-.15-13.16,0-2.76.1-5.49,1.39-7.84,2.7-.2.11-.58.51-.76.16,2.16-2.37,4.8-4.55,8.01-5.27,5.17-1.17,10.26,1.24,15.36-.57.21,3.15,1.12,6.39,1.37,9.51.19,2.4.32,4.2-2.46,4.86-24.71,3.1-49.23,7.39-73.94,10.38-1.39.13-2.97-1.37-3.29-2.66-3.41-24.01-6.43-48.08-9.68-72.11C1.47,23.9.17,18.8,0,14.97c-.07-1.53,1.2-3.46,2.67-3.91,21.34-2.82,42.56-6.48,63.89-9.41,3.74-.52,8.21-1.41,11.88-1.64,2.26-.14,3.99.94,4.63,3.15.94,8.78,1.77,17.58,3.16,26.3-3.46,5.62-10.99,7.18-12.66,14.26-1.4,5.96,1.04,9.47,5.21,13.33h0s-.01.01-.01.01c-7.03-.7-13.12-1.31-19.38,2.48-4.13,2.49-5.48,7.04-10.04,8.75-1.87.7-4.19,1.19-5.96,0l-.11.45c2.56,1.64,4.98,2.62,8.06,2,5.55-1.11,6.45-6.18,11.16-8.54,7.33-3.67,11.84.6,18.69.13,5.47-.37,11.29-4.13,11.11-10.19-.09-2.83-2.17-6.08-5.29-4.38-2.35,1.29-3.31,3.51-.68,5.16-7.48,1.69-9.06-6.04-5.73-11.34,5.08-8.09,17.21-8.23,21.19,1.04,5.09,11.86-2.38,26.87-14.77,30.12-4.09,1.07-7.32.53-11.35.79-8.48.54-13.64,6.8-23.29,5.21-26.62-4.37-24.68-53.71-2.13-61.78,7.58-2.72,17.94-.91,22.15,6.49.98,1.71,1.9,5.46,2.84,6.56,1.25,1.47,3.71.43,3.98-1.5Z"/>
    <g>
      <path d="M101.14,68.61l.03-2.09-.03-2.16,3.41-1.94c1.54-.88,2.89-1.48,4.05-1.81,1.16-.33,2.39-.5,3.7-.5,2.88,0,5.19.65,6.95,1.94,1.76,1.29,2.82,2.93,3.17,4.93.25,1.5.41,5.21.47,11.14.04,5.6.17,8.69.38,9.27.21.58.73.87,1.56.87h2.44v2.06c-2.38-.15-4.03-.22-4.97-.22-1.17,0-2.73.07-4.69.22l.03-2.78c0-.9-.01-1.8-.03-2.72l-6.47,4.93c-.58.44-1.16.74-1.72.92-.56.18-1.34.27-2.34.27-2.69,0-4.74-.66-6.16-1.98-1.42-1.32-2.12-3.09-2.12-5.32,0-2.1.5-3.94,1.52-5.51,1.01-1.57,2.45-2.73,4.31-3.48,1.86-.75,6.19-1.73,12.98-2.93-.04-2.65-.62-4.62-1.75-5.94-1.42-1.65-3.44-2.47-6.06-2.47-1,0-1.94.12-2.81.37-.88.25-1.69.61-2.44,1.1-.6,1.49-1.16,2.92-1.66,4.28l-1.75-.47ZM117.61,73.58c-5.79,1.25-9.47,2.42-11.03,3.51s-2.34,2.78-2.34,5.07c0,1.54.45,2.77,1.34,3.69.9.92,2.05,1.39,3.47,1.39,1.56,0,3.06-.44,4.48-1.31,1.43-.87,2.79-2.17,4.08-3.9l-.06-6.92.06-1.53Z"/>
      <path d="M140.7,65.71l4.19-3.75c.67-.6,1.38-1.03,2.12-1.28,1.08-.38,2.16-.56,3.22-.56,2.35,0,4.24.42,5.67,1.27,1.43.84,2.73,2.36,3.92,4.55l4.04-3.69c.69-.62,1.53-1.1,2.54-1.44,1.31-.46,2.59-.69,3.82-.69,1.88,0,3.58.44,5.1,1.31s2.66,2.01,3.4,3.41,1.11,3.29,1.11,5.69l-.12,12.23c0,2.73.16,4.34.47,4.83s1.12.77,2.42.83l2.29.09v1.81l-1.51-.07c-2.43-.1-4.08-.15-4.93-.15-1.32,0-2.86.07-4.62.22.29-3.85.44-8.36.44-13.52,0-4.36-.19-7.22-.56-8.59s-1.09-2.44-2.15-3.22-2.39-1.17-3.99-1.17c-1.81,0-3.36.49-4.65,1.47s-2.09,2.15-2.4,3.52c-.21.86-.31,4.57-.31,11.13,0,3.86.03,6.05.09,6.59.06.54.23.92.52,1.14s1.18.42,2.7.58l2.09.25v1.81c-3.69-.15-6.4-.22-8.12-.22-1.38,0-4.04.07-8,.22v-1.81h2.09c1.25,0,2.06-.18,2.44-.53s.59-1.19.66-2.5c.17-3.42.25-6.99.25-10.7,0-3.32-.22-5.61-.67-6.87-.45-1.26-1.21-2.26-2.28-2.99-1.07-.73-2.36-1.1-3.86-1.1-1.6,0-3.06.45-4.38,1.35s-2.21,1.98-2.69,3.25c-.31.88-.47,3.36-.47,7.45,0,4.49.04,7.78.12,9.89.04.98.2,1.61.47,1.88.27.27,1.17.48,2.69.63l2.16.25v1.81c-2.6-.15-5.06-.22-7.38-.22-2.62,0-5.48.07-8.56.22v-1.81h2.38c1.35,0,2.17-.36,2.44-1.08.27-.72.41-4.64.41-11.77,0-5.22-.03-8.3-.09-9.24s-.24-1.54-.53-1.79c-.29-.25-1.18-.38-2.66-.38h-1.94v-1.72c3.06-.42,5.7-.99,7.91-1.72l2.28-.88c.38,0,.56.25.56.75l-.06,1.13c-.06,1.15-.08,2.44-.06,3.87Z"/>
      <path d="M197.29,66.42l4.37-3.88c1.1-.98,2.04-1.59,2.81-1.84,1.23-.4,2.66-.59,4.31-.59,3.7,0,6.7,1.15,8.99,3.44,2.29,2.29,3.43,5.25,3.43,8.88,0,1.81-.26,3.6-.78,5.36-.52,1.76-1.15,3.2-1.9,4.31-.75,1.11-1.59,2.05-2.53,2.8-.31.25-1.58,1.07-3.81,2.47l-1.25.91c-1.58,1.1-2.86,1.83-3.82,2.17s-2.08.52-3.32.52c-.98,0-2.01-.14-3.09-.42s-2.22-.69-3.4-1.23v4.41c0,4.52.06,7.71.19,9.56.06.81.32,1.4.78,1.77.46.36,1.43.55,2.91.55h1.69v1.75c-3.95-.15-6.84-.22-8.67-.22-2.02,0-4.6.07-7.73.22v-1.75h2.28c1.6,0,2.55-.34,2.84-1.03.29-.69.44-4.35.44-11v-19.19c0-3.33-.08-5.91-.25-7.72-.08-.88-.29-1.45-.61-1.73-.32-.28-1.08-.42-2.27-.42h-2.44v-1.94c2.9-.31,5.76-.91,8.56-1.78l1.91-.75c.33,0,.5.29.5.88l-.09,3.31-.03,2.22ZM197.29,83.61c1.33,1.5,2.66,2.56,3.99,3.19s2.77.94,4.31.94c3.29,0,5.8-1.24,7.55-3.72,1.75-2.48,2.62-5.43,2.62-8.84,0-2.29-.4-4.25-1.2-5.89-.8-1.64-1.97-2.92-3.51-3.84-1.54-.93-3.19-1.39-4.96-1.39-1.25,0-2.47.25-3.67.75s-2.24,1.19-3.13,2.08c-.89.89-1.47,1.7-1.72,2.45-.19.56-.28,2.05-.28,4.47v9.81Z"/>
      <path d="M228.11,68.61l.03-2.09-.03-2.16,3.41-1.94c1.54-.88,2.89-1.48,4.05-1.81,1.16-.33,2.39-.5,3.7-.5,2.88,0,5.19.65,6.95,1.94s2.82,2.93,3.17,4.93c.25,1.5.41,5.21.47,11.14.04,5.6.17,8.69.38,9.27.21.58.73.87,1.56.87h2.44v2.06c-2.38-.15-4.03-.22-4.97-.22-1.17,0-2.73.07-4.69.22l.03-2.78c0-.9-.01-1.8-.03-2.72l-6.47,4.93c-.58.44-1.16.74-1.72.92-.56.18-1.34.27-2.34.27-2.69,0-4.74-.66-6.16-1.98-1.42-1.32-2.12-3.09-2.12-5.32,0-2.1.5-3.94,1.52-5.51s2.45-2.73,4.31-3.48c1.86-.75,6.19-1.73,12.98-2.93-.04-2.65-.62-4.62-1.75-5.94-1.42-1.65-3.44-2.47-6.06-2.47-1,0-1.94.12-2.81.37-.88.25-1.69.61-2.44,1.1-.6,1.49-1.16,2.92-1.66,4.28l-1.75-.47ZM244.58,73.58c-5.79,1.25-9.47,2.42-11.03,3.51s-2.34,2.78-2.34,5.07c0,1.54.45,2.77,1.34,3.69s2.05,1.39,3.47,1.39c1.56,0,3.06-.44,4.48-1.31s2.79-2.17,4.08-3.9l-.06-6.92.06-1.53Z"/>
      <path d="M267.48,59.98l.75.47c-.15,1.56-.24,3.28-.28,5.16-.15,6.08-.22,10.57-.22,13.47,0,2.71.09,5.02.28,6.94.08.75.28,1.27.59,1.56.31.29,1.06.51,2.25.66l2.12.28v1.81c-3.04-.15-5.81-.22-8.31-.22s-4.94.07-7.44.22v-1.81l2.69-.28c1.04-.08,1.68-.28,1.92-.58s.39-1.31.45-3.02c.1-2.65.16-6.31.16-10.97,0-3.24-.05-5.73-.16-7.49-.04-.65-.22-1.11-.55-1.38s-1.05-.41-2.17-.41h-2.34v-1.81c2.54-.37,4.41-.71,5.61-1.02s2.74-.83,4.64-1.58ZM264.98,46.14c.96,0,1.78.35,2.47,1.05.69.7,1.03,1.54,1.03,2.52s-.34,1.81-1.03,2.5-1.51,1.03-2.47,1.03-1.81-.34-2.5-1.03-1.03-1.52-1.03-2.5.34-1.82,1.03-2.52c.69-.7,1.52-1.05,2.5-1.05Z"/>
      <path d="M302.23,65.92c.48,1.34.72,2.43.72,3.29,0,1.86-.56,3.65-1.69,5.37s-2.73,3.11-4.82,4.17c-2.08,1.05-4.34,1.58-6.75,1.58l-1.47-.03c-1.37,1.02-2.24,1.77-2.6,2.27s-.54.98-.54,1.46c0,.79.41,1.41,1.22,1.87s2.47.68,4.97.68c.96,0,2.33-.04,4.12-.11,2.56-.12,4.42-.18,5.56-.18,1.65,0,2.91.27,3.78.8s1.62,1.46,2.25,2.79c.62,1.32.94,2.82.94,4.49,0,2.34-.71,4.57-2.12,6.71-1.42,2.14-3.48,3.85-6.19,5.15-2.71,1.29-5.82,1.94-9.34,1.94-4.29,0-7.59-.93-9.91-2.8-2.31-1.86-3.47-4.16-3.47-6.89,0-1.69.6-3.4,1.81-5.12,2.17-1.02,3.99-2.05,5.47-3.09-1.71-.56-2.8-1.07-3.29-1.54s-.73-1.06-.73-1.79c0-.87.24-1.73.72-2.59.27-.52.96-1.15,2.06-1.9l3.03-2.15c-2.5-.63-4.3-1.51-5.4-2.66-1.46-1.54-2.19-3.52-2.19-5.92,0-2.11.54-4.03,1.62-5.76,1.08-1.73,2.68-3.1,4.78-4.1,2.69-1.27,5.28-1.91,7.78-1.91,1.58,0,2.97.21,4.17.62,1.2.42,2.42,1.12,3.67,2.12h2.62c2.71,0,4.81-.09,6.31-.28l.34.66c-.62.9-1.18,1.85-1.66,2.84h-5.78ZM288.97,90.77c-1.48,0-2.49.17-3.03.5-1.75,1.13-2.81,2.04-3.18,2.72-.62,1.08-.94,2.45-.94,4.1,0,2.28.84,4.15,2.53,5.64,1.69,1.48,4.03,2.22,7.02,2.22,2.31,0,4.34-.43,6.08-1.28,1.75-.86,3.11-2.03,4.07-3.52.97-1.49,1.45-3.03,1.45-4.62,0-1.36-.34-2.55-1.01-3.57-.68-1.02-1.48-1.68-2.42-1.97-.48-.15-1.57-.22-3.28-.22h-7.3ZM297.51,70.86c0-2.61-.67-4.72-2-6.31-1.34-1.59-3.02-2.38-5.04-2.38s-3.62.65-4.84,1.95-1.83,3.1-1.83,5.4c0,2.78.66,4.96,1.99,6.54s2.99,2.37,5,2.37,3.63-.66,4.87-1.99,1.86-3.18,1.86-5.57Z"/>
      <path d="M321.14,66.08l4.73-4.19c.56-.5,1.16-.86,1.78-1.09,1.38-.46,2.75-.69,4.13-.69,2.23,0,4.16.45,5.79,1.36s2.8,2.08,3.5,3.53c.71,1.45,1.06,3.71,1.06,6.8l-.12,9.84c0,3.4.14,5.35.43,5.88.39.67,1.16,1,2.3,1h2.24v1.81c-2.22-.15-4.14-.22-5.76-.22s-3.27.07-5.08.22c.4-4.06.59-9.55.59-16.47,0-2.79-.25-4.77-.74-5.94-.49-1.17-1.31-2.1-2.47-2.81-1.16-.71-2.55-1.06-4.18-1.06-2.02,0-3.74.51-5.15,1.53-1.41,1.02-2.28,2.15-2.62,3.38-.21.81-.31,2.94-.31,6.38,0,3.81.03,7.35.09,10.62.02.98.17,1.59.44,1.84.52.48,1.38.72,2.58.72h2.23v1.81c-3.53-.15-6.34-.22-8.42-.22-2.21,0-4.73.07-7.55.22v-1.81h2.25c1.54,0,2.44-.36,2.7-1.08.26-.72.39-5.04.39-12.97,0-3.56-.04-6.35-.12-8.36-.04-.67-.21-1.12-.5-1.37-.29-.25-1.12-.37-2.47-.37h-2.25v-1.81c1.79-.21,3.39-.49,4.8-.84,1.41-.35,3-.9,4.77-1.62.19-.08.36-.12.53-.12.33,0,.5.24.5.72l-.03,1.19-.06,4.22Z"/>
      <path d="M351.86,80.77v2.04c0,1.63.15,2.65.44,3.04.54.67,1.6,1.32,3.17,1.95,1.57.63,3.19.94,4.86.94,2.15,0,3.9-.58,5.25-1.74,1.35-1.16,2.03-2.54,2.03-4.15,0-1.27-.4-2.29-1.19-3.07-.79-.77-2.3-1.39-4.53-1.85-4.15-.83-6.89-1.56-8.22-2.19-1.33-.63-2.33-1.46-3-2.5-.67-1.04-1-2.3-1-3.79,0-2.77,1.01-5.03,3.02-6.76s4.87-2.6,8.56-2.6c2.92,0,5.83.58,8.73,1.75-.18,1.42-.33,3.79-.44,7.12h-1.88c-.04-1.83-.24-3.04-.59-3.62-.48-.77-1.35-1.47-2.62-2.09-1.27-.62-2.62-.94-4.05-.94-1.89,0-3.4.49-4.54,1.46s-1.7,2.19-1.7,3.65.45,2.45,1.34,3.16c.9.73,3.38,1.5,7.44,2.32,3,.6,4.98,1.17,5.94,1.69.96.52,1.73,1.31,2.31,2.37.58,1.06.88,2.28.88,3.65,0,2.81-1.2,5.24-3.61,7.28s-5.62,3.06-9.64,3.06c-2.56,0-5.44-.4-8.62-1.2-.56-.14-.84-.36-.84-.65l.09-.44c.08-.31.16-.87.22-1.66.19-2.03.28-3.6.28-4.73l-.03-1.5h1.94Z"/>
    </g>
    <g>
      <path d="M25.69,128.53c0-2.88.67-5.47,2-7.8,1.33-2.32,3.2-4.14,5.61-5.45s5.14-1.97,8.2-1.97c4.44,0,7.99,1.31,10.66,3.94,2.67,2.62,4,6.12,4,10.5,0,5.17-1.74,9.27-5.22,12.31-3.1,2.73-6.82,4.09-11.16,4.09s-7.56-1.4-10.17-4.2c-2.61-2.8-3.92-6.61-3.92-11.42ZM31.57,126.33c0,4.3.88,7.97,2.64,11.03,1.76,3.06,4.3,4.58,7.61,4.58,2.52,0,4.56-.96,6.11-2.88,1.55-1.92,2.33-4.83,2.33-8.73,0-3.15-.46-5.88-1.38-8.18-.92-2.3-2.12-3.98-3.62-5.04-1.5-1.05-3.18-1.58-5.03-1.58-1.65,0-3.13.42-4.45,1.25-1.32.83-2.3,1.95-2.92,3.35-.85,1.9-1.28,3.96-1.28,6.19Z"/>
      <path d="M69.94,118.75v12.16c0,5.83.17,9.09.52,9.78s1.39,1.03,3.14,1.03h2.75v1.81c-3.42-.15-5.88-.22-7.36-.22l-9.89.22v-1.81h2.09c1.62,0,2.58-.32,2.88-.97.4-.88.59-4.16.59-9.84v-12.16l-4.5.28v-1.3c1.48-.72,2.98-1.49,4.5-2.29v-3.98c0-2.02.28-3.67.83-4.95.55-1.27,1.67-2.78,3.34-4.51,2.21-2.32,3.94-3.83,5.17-4.54.81-.48,1.84-.72,3.07-.72.81,0,1.72.14,2.72.41-.06,1.06-.09,1.92-.09,2.56s.03,1.53.09,2.66l-.78.34c-1.23-1.08-2.64-1.62-4.22-1.62-1.75,0-3,.6-3.73,1.79-.74,1.19-1.11,4.09-1.11,8.71v4.17c3.38-.02,6.14-.12,8.28-.31l.22.31-.5,3-3.84-.09c-.94,0-2.32.03-4.16.09Z"/>
      <path d="M107.32,118.97v12.27c0,3.19.1,5.24.31,6.13.21.9.63,1.6,1.27,2.1.63.5,1.44.75,2.42.75.6,0,1.19-.12,1.77-.36.57-.24,1.14-.6,1.7-1.08l.91,1.09-3.04,3.57c-.67.23-1.32.41-1.95.53-.63.12-1.23.19-1.82.19-1.55,0-2.86-.28-3.92-.83s-1.84-1.27-2.32-2.16c-.48-.88-.72-2.22-.72-4.02l.12-6.03v-11.88c-1.6,0-3.26.07-4.97.22v-1.34c1.79-.69,3.45-1.41,4.97-2.16-.02-2.98-.1-6.21-.25-9.69,2.43-1.02,4.18-1.84,5.25-2.47l.82.62c-.17,1.62-.34,5.47-.53,11.53,2.54,0,4.61-.03,6.22-.09l2.5-.12-.34,3.22-1.28-.03-6,.03h-1.09Z"/>
      <path d="M127.91,119.25l4.09-3.59c.96-.9,1.9-1.51,2.83-1.84.93-.33,2.05-.5,3.36-.5,2.31,0,4.32.46,6.02,1.39,1.7.93,2.88,2.12,3.53,3.56.66,1.45.98,3.91.98,7.39l-.19,9.25c0,2.08.08,3.73.25,4.94.06.5.23.88.52,1.12s.89.42,1.83.5l2.38.25v1.81c-2.02-.15-3.99-.22-5.91-.22-1.65,0-3.28.07-4.91.22.38-5.23.56-10.38.56-15.44,0-3.4-.21-5.7-.64-6.91-.43-1.21-1.19-2.17-2.3-2.88-1.1-.71-2.5-1.06-4.19-1.06s-3.3.41-4.72,1.23c-1.42.82-2.4,1.78-2.94,2.86-.38.77-.56,2.6-.56,5.5v5.44c0,4.96.11,7.7.34,8.22.23.52,1.06.84,2.5.97l2.72.25v1.81c-3.25-.15-5.87-.22-7.84-.22s-4.76.07-8.09.22v-1.81l1.97-.25c1.23-.15,2-.32,2.31-.51s.52-.65.62-1.36c.15-1.12.22-3.64.22-7.56v-21.08c0-5.56-.15-8.67-.44-9.34-.19-.46-1.03-.69-2.53-.69h-2.16v-1.91c3.23-.33,5.81-.8,7.75-1.41l2.56-.88c.33,0,.5.22.5.66l-.09,1.28-.19,5.62c-.1,2.83-.16,5.02-.16,6.58v8.36Z"/>
      <path d="M161.57,128.41c.1,4.1,1.15,7.22,3.15,9.34s4.62,3.19,7.86,3.19c1.46,0,2.9-.24,4.34-.72,1.43-.48,2.86-1.2,4.27-2.16l.53.47-1,2.62c-1.73,1-3.51,1.75-5.34,2.25-1.83.5-3.72.75-5.66.75-4.23,0-7.64-1.34-10.23-4.02-2.59-2.68-3.89-6.31-3.89-10.89,0-3.5.73-6.53,2.19-9.09.96-1.69,2.73-3.25,5.31-4.69,2.58-1.44,5.09-2.16,7.53-2.16,3.69,0,6.61,1.08,8.77,3.25,2.16,2.17,3.23,5.2,3.23,9.09l-.06,1.84c-1.37.33-2.68.55-3.93.66-2.23.17-5.32.25-9.27.25h-7.8ZM161.63,126.06c3.23.15,6.79.22,10.69.22,1.56,0,3.07-.07,4.53-.22v-1.75c0-1.83-.37-3.57-1.09-5.22-.46-1.02-1.26-1.87-2.41-2.55-1.15-.68-2.47-1.02-3.97-1.02-2.33,0-4.2.85-5.59,2.56-1.4,1.71-2.12,4.37-2.16,7.97Z"/>
      <path d="M247.79,105.81l-9.29,19.33c-3.48,7.26-6.34,13.59-8.57,19.02h-1.25c-.77-1.86-2.98-6.62-6.63-14.3l-11.2-23.18v24.16c0,5.63.22,8.82.68,9.58.45.76,1.85,1.14,4.19,1.14h1.16v1.97c-2.9-.15-5.26-.22-7.08-.22-1.32,0-3.94.07-7.86.22v-1.97h2.03c1.38,0,2.29-.2,2.75-.59.46-.4.74-1.11.84-2.16.27-2.92.41-6.06.41-9.44v-17.69c0-4.27-.09-7.09-.28-8.47-.08-.71-.39-1.25-.92-1.62s-1.59-.56-3.17-.56h-1.66v-1.97c3.62.15,5.91.22,6.85.22,1.19,0,2.88-.07,5.06-.22,2.52,5.61,5.43,11.79,8.73,18.54l8.23,16.92,7.6-15.67c2.67-5.48,5.71-12.08,9.13-19.79,2.6.15,4.44.22,5.5.22,1.23,0,3.45-.07,6.66-.22v1.97h-2.04c-1.84,0-2.97.32-3.38.95-.41.64-.61,2.92-.61,6.86v22.84c0,5.08.21,8,.64,8.75.43.75,1.63,1.12,3.6,1.12h1.79v1.97c-2.9-.15-5.67-.22-8.31-.22-2.92,0-5.97.07-9.16.22v-1.97h2.06c1.65,0,2.64-.36,2.98-1.08s.52-3.81.52-9.27v-25.41Z"/>
      <path d="M272.85,113.19l.75.47c-.15,1.56-.24,3.28-.28,5.16-.15,6.08-.22,10.57-.22,13.47,0,2.71.09,5.02.28,6.94.08.75.28,1.27.59,1.56.31.29,1.06.51,2.25.66l2.12.28v1.81c-3.04-.15-5.81-.22-8.31-.22s-4.94.07-7.44.22v-1.81l2.69-.28c1.04-.08,1.68-.28,1.92-.58.24-.3.39-1.31.45-3.02.1-2.65.16-6.31.16-10.97,0-3.24-.05-5.73-.16-7.49-.04-.65-.22-1.11-.55-1.38-.32-.27-1.05-.41-2.17-.41h-2.34v-1.81c2.54-.37,4.41-.71,5.61-1.02,1.2-.31,2.74-.83,4.64-1.58ZM270.35,99.34c.96,0,1.78.35,2.47,1.05.69.7,1.03,1.54,1.03,2.52s-.34,1.81-1.03,2.5-1.51,1.03-2.47,1.03-1.81-.34-2.5-1.03-1.03-1.52-1.03-2.5.34-1.82,1.03-2.52c.69-.7,1.52-1.05,2.5-1.05Z"/>
      <path d="M284.38,133.97v2.04c0,1.63.15,2.65.44,3.04.54.67,1.6,1.32,3.17,1.95,1.57.63,3.19.94,4.86.94,2.15,0,3.9-.58,5.25-1.74,1.35-1.16,2.03-2.54,2.03-4.15,0-1.27-.4-2.29-1.19-3.07-.79-.77-2.3-1.39-4.53-1.85-4.15-.83-6.89-1.56-8.22-2.19-1.33-.62-2.33-1.46-3-2.5-.67-1.04-1-2.3-1-3.79,0-2.77,1.01-5.03,3.02-6.76s4.87-2.6,8.56-2.6c2.92,0,5.83.58,8.73,1.75-.18,1.42-.33,3.79-.44,7.12h-1.88c-.04-1.83-.24-3.04-.59-3.62-.48-.77-1.35-1.47-2.62-2.09-1.27-.62-2.62-.94-4.05-.94-1.89,0-3.4.49-4.54,1.46s-1.7,2.19-1.7,3.64.45,2.45,1.34,3.16c.9.73,3.38,1.5,7.44,2.32,3,.6,4.98,1.17,5.94,1.69.96.52,1.73,1.31,2.31,2.37.58,1.06.88,2.28.88,3.65,0,2.81-1.2,5.24-3.61,7.28-2.41,2.04-5.62,3.06-9.64,3.06-2.56,0-5.44-.4-8.62-1.2-.56-.14-.84-.36-.84-.65l.09-.44c.08-.31.16-.87.22-1.66.19-2.03.28-3.6.28-4.73l-.03-1.5h1.94Z"/>
      <path d="M318.38,118.97v12.27c0,3.19.1,5.24.31,6.13.21.9.63,1.6,1.27,2.1.63.5,1.44.75,2.42.75.6,0,1.19-.12,1.77-.36.57-.24,1.14-.6,1.7-1.08l.91,1.09-3.04,3.57c-.67.23-1.32.41-1.95.53-.63.12-1.23.19-1.82.19-1.55,0-2.86-.28-3.92-.83s-1.84-1.27-2.32-2.16c-.48-.88-.72-2.22-.72-4.02l.12-6.03v-11.88c-1.6,0-3.26.07-4.97.22v-1.34c1.79-.69,3.45-1.41,4.97-2.16-.02-2.98-.1-6.21-.25-9.69,2.43-1.02,4.18-1.84,5.25-2.47l.82.62c-.17,1.62-.34,5.47-.53,11.53,2.54,0,4.61-.03,6.22-.09l2.5-.12-.34,3.22-1.28-.03-6,.03h-1.09Z"/>
    </g>
  </g>
</svg>